<?xml version="1.0" encoding="utf-8"?>
<!-- Generator: Adobe Illustrator 20.0.0, SVG Export Plug-In . SVG Version: 6.00 Build 0)  -->
<svg version="1.1" id="Layer_1" xmlns="http://www.w3.org/2000/svg" xmlns:xlink="http://www.w3.org/1999/xlink" x="0px" y="0px"
	 viewBox="0 0 510.5 215.6" style="enable-background:new 0 0 510.5 215.6;" xml:space="preserve">
<style type="text/css">
	.st0{fill:#00A7E1;}
</style>
<path class="st0" d="M107.9,8.3c54.8,0,99.4,44.6,99.4,99.4s-44.6,99.4-99.4,99.4S8.5,162.5,8.5,107.7S53.1,8.3,107.9,8.3
	 M107.9,1.9C49.4,1.9,2.1,49.3,2.1,107.7s47.4,105.8,105.8,105.8s105.8-47.4,105.8-105.8S166.3,1.9,107.9,1.9L107.9,1.9z"/>
<g>
	<path class="st0" d="M62,161.3h-0.2c-1.2,0-2.2-1-2.2-2.2V56.3c0-1.2,1-2.2,2.2-2.2H62c1.2,0,2.2,1,2.2,2.2v102.9
		C64.2,160.4,63.2,161.3,62,161.3z"/>
	<path class="st0" d="M121.8,105L88.9,57.5c-1-1.5,0-3.5,1.8-3.5h0c0.7,0,1.4,0.4,1.8,1l33.1,47.8h0.2L158.9,55c0.4-0.6,1.1-1,1.8-1
		h0c1.8,0,2.8,2,1.8,3.5l-33.2,47.6c-0.5,0.8-0.5,1.8,0,2.5l34.8,50.2c1,1.5,0,3.5-1.8,3.5h0c-0.7,0-1.4-0.4-1.8-0.9L125.5,110h-0.2
		l-35.2,50.4c-0.4,0.6-1.1,0.9-1.8,0.9l0,0c-1.8,0-2.8-2-1.8-3.5l35.2-50.3C122.3,106.8,122.3,105.8,121.8,105z"/>
</g>
<g>
	<path class="st0" d="M322.9,148.3l-54.8-74.9v74.9h-3.9V67.1h3.9l54.8,74.2V67.1h3.9v81.3H322.9z"/>
	<path class="st0" d="M348.3,148.3V67.1h3.9v81.3H348.3z"/>
	<path class="st0" d="M432.3,148.3l-54.8-74.9v74.9h-3.9V67.1h3.9l54.8,74.2V67.1h3.9v81.3H432.3z"/>
	<path class="st0" d="M457.7,148.3V67.1h49.7v3.7h-45.8v34h45v3.7h-45v36.3h45.8v3.7H457.7z"/>
</g>
</svg>
